<svg width="410" height="88" viewBox="0 0 410 88" fill="none" xmlns="http://www.w3.org/2000/svg">
<g clip-path="url(#clip0_503_224)">
<path fill-rule="evenodd" clip-rule="evenodd" d="M369.459 89C362.042 89 355.667 87.875 350.334 85.625C345.001 83.375 340.959 80.4167 338.209 76.75C335.459 73.0833 334.001 69.125 333.834 64.875C333.834 64.125 334.084 63.5 334.584 63C335.084 62.5 335.709 62.25 336.459 62.25H347.584C348.584 62.25 349.334 62.4583 349.834 62.875C350.417 63.2083 350.959 63.7917 351.459 64.625C352.292 67.4583 354.209 69.8333 357.209 71.75C360.209 73.6667 364.292 74.625 369.459 74.625C375.376 74.625 379.834 73.6667 382.834 71.75C385.834 69.75 387.334 67 387.334 63.5C387.334 61.1667 386.542 59.25 384.959 57.75C383.459 56.25 381.167 54.9583 378.084 53.875C375.084 52.7917 370.584 51.4583 364.584 49.875C354.751 47.5417 347.542 44.4583 342.959 40.625C338.459 36.7083 336.209 31.1667 336.209 24C336.209 19.1667 337.501 14.875 340.084 11.125C342.751 7.375 346.542 4.41667 351.459 2.25C356.459 0.0833333 362.251 -1 368.834 -1C375.667 -1 381.584 0.208331 386.584 2.625C391.584 5.04167 395.376 8.08334 397.959 11.75C400.626 15.3333 402.042 18.9167 402.209 22.5C402.209 23.25 401.959 23.875 401.459 24.375C400.959 24.875 400.334 25.125 399.584 25.125H387.959C386.209 25.125 385.001 24.3333 384.334 22.75C383.834 20.0833 382.167 17.875 379.334 16.125C376.501 14.2917 373.001 13.375 368.834 13.375C364.167 13.375 360.501 14.25 357.834 16C355.167 17.75 353.834 20.2917 353.834 23.625C353.834 25.9583 354.501 27.875 355.834 29.375C357.167 30.875 359.251 32.2083 362.084 33.375C365.001 34.5417 369.167 35.8333 374.584 37.25C381.917 38.9167 387.751 40.7917 392.084 42.875C396.501 44.9583 399.751 47.5833 401.834 50.75C403.917 53.9167 404.959 57.9583 404.959 62.875C404.959 68.2083 403.459 72.875 400.459 76.875C397.542 80.7917 393.376 83.7917 387.959 85.875C382.626 87.9583 376.459 89 369.459 89ZM84 88C84.493 88 84.9652 87.9108 85.4013 87.7477C86.2495 87.7215 86.9491 87.4722 87.5 87C88.0833 86.4167 88.375 85.6667 88.375 84.75V31L124.25 85.75C125.25 87.0833 126.458 87.75 127.875 87.75H137.625C138.458 87.75 139.167 87.4583 139.75 86.875C140.333 86.2917 140.625 85.5417 140.625 84.625V3.375C140.625 2.45833 140.333 1.70833 139.75 1.125C139.167 0.541666 138.417 0.249998 137.5 0.249998H127C126.083 0.249998 125.333 0.541666 124.75 1.125C124.25 1.70833 124 2.45833 124 3.375V58.25L88 2.25C87.5833 1.66667 87.125 1.20833 86.625 0.874998C86.4162 0.701034 86.1639 0.563387 85.868 0.462055C85.3104 0.167056 84.6747 0 84 0H4C1.79086 0 0 1.79086 0 4V84C0 86.2091 1.79086 88 4 88H84ZM163.129 87.75C162.296 87.75 161.587 87.4583 161.004 86.875C160.421 86.2917 160.129 85.5833 160.129 84.75V3.375C160.129 2.45833 160.379 1.70833 160.879 1.125C161.462 0.541666 162.212 0.249998 163.129 0.249998H218.129C219.046 0.249998 219.796 0.541666 220.379 1.125C220.962 1.70833 221.254 2.45833 221.254 3.375V11.625C221.254 12.5417 220.962 13.2917 220.379 13.875C219.796 14.375 219.046 14.625 218.129 14.625H177.004V36.75H215.379C216.296 36.75 217.046 37.0417 217.629 37.625C218.212 38.125 218.504 38.8333 218.504 39.75V47.5C218.504 48.4167 218.212 49.1667 217.629 49.75C217.046 50.25 216.296 50.5 215.379 50.5H177.004V73.375H219.129C220.046 73.375 220.796 73.6667 221.379 74.25C221.962 74.8333 222.254 75.5833 222.254 76.5V84.75C222.254 85.6667 221.962 86.4167 221.379 87C220.796 87.5 220.046 87.75 219.129 87.75H163.129ZM249.263 86.75C250.013 87.4167 251.013 87.75 252.263 87.75H260.638C262.804 87.75 264.304 86.7083 265.138 84.625L279.138 42.875L293.138 84.625C293.388 85.5417 293.888 86.2917 294.638 86.875C295.388 87.4583 296.346 87.75 297.513 87.75H305.888C308.388 87.75 309.846 86.5 310.263 84L325.138 3.875C325.221 3.625 325.263 3.29167 325.263 2.875C325.263 2.125 325.013 1.5 324.513 1C324.013 0.5 323.429 0.249998 322.763 0.249998H311.763C310.679 0.249998 309.846 0.458332 309.263 0.874998C308.763 1.20833 308.429 1.83333 308.263 2.75L297.888 59.25L286.513 22.75C285.929 20.6667 284.596 19.625 282.513 19.625H275.763C273.846 19.625 272.471 20.6667 271.638 22.75L260.388 59.375L250.013 2.75C249.763 1.08333 248.596 0.249998 246.513 0.249998H235.513C234.846 0.249998 234.221 0.5 233.638 1C233.138 1.5 232.888 2.125 232.888 2.875L233.013 3.875L247.888 84C248.054 85.1667 248.513 86.0833 249.263 86.75ZM35.0978 60C34.8806 60 34.6876 59.9142 34.5186 59.7425C34.3739 59.5954 34.3015 59.4238 34.3015 59.2276C34.3015 59.1785 34.3377 59.0559 34.41 58.8598L46.6452 28.8828C46.9348 28.2943 47.3692 28 47.9483 28H51.2062C51.4234 28 51.6044 28.0858 51.7492 28.2575C51.894 28.4046 51.9664 28.5762 51.9664 28.7724C51.9664 28.895 51.9422 29.0176 51.894 29.1402L39.5865 59.1172C39.3451 59.7057 38.9107 60 38.2833 60H35.0978ZM12.905 56.9103C12.6636 56.9103 12.4464 56.8245 12.2534 56.6529C12.0845 56.4567 12 56.236 12 55.9908V32.0828C12 31.813 12.0845 31.5923 12.2534 31.4207C12.4464 31.249 12.6636 31.1632 12.905 31.1632H17.466C17.7314 31.1632 17.9486 31.249 18.1176 31.4207C18.2865 31.5923 18.371 31.813 18.371 32.0828V40.2483L25.0677 31.8621C25.3573 31.3962 25.8279 31.1632 26.4794 31.1632H31.692C31.9092 31.1632 32.0902 31.249 32.235 31.4207C32.3798 31.5678 32.4522 31.7395 32.4522 31.9356C32.4522 32.1073 32.416 32.2544 32.3436 32.377L23.656 43.4851L32.9952 55.6965C33.0917 55.7946 33.14 55.9418 33.14 56.1379C33.14 56.3341 33.0676 56.518 32.9228 56.6897C32.778 56.8368 32.597 56.9103 32.3798 56.9103H26.9862C26.407 56.9103 25.9244 56.6651 25.5383 56.1747L18.371 47.0897V55.9908C18.371 56.2605 18.2865 56.4812 18.1176 56.6529C17.9486 56.8245 17.7314 56.9103 17.466 56.9103H12.905ZM56.6654 54.7402C58.6201 56.4322 61.323 57.2782 64.7739 57.2782C66.8976 57.2782 68.804 56.9226 70.4933 56.2115C72.1825 55.4759 73.5098 54.446 74.4751 53.1218C75.4646 51.7732 75.9713 50.2038 75.9955 48.4138C76.0196 48.1931 75.9472 48.0092 75.7783 47.8621C75.6335 47.7149 75.4525 47.6414 75.2353 47.6414H70.3485C70.0106 47.6414 69.7572 47.7149 69.5883 47.8621C69.4194 47.9847 69.2867 48.2299 69.1901 48.5977C68.9005 49.7992 68.3817 50.6697 67.6336 51.2092C66.8855 51.7241 65.9202 51.9816 64.7377 51.9816C61.8901 51.9816 60.418 50.3632 60.3215 47.1264C60.2973 46.4153 60.2853 45.3732 60.2853 44C60.2853 42.6268 60.2973 41.6092 60.3215 40.9471C60.418 37.7103 61.8901 36.092 64.7377 36.092C65.9202 36.092 66.8734 36.3494 67.5974 36.8644C68.3214 37.3548 68.8523 38.2253 69.1901 39.4759C69.3108 39.8437 69.4556 40.1011 69.6245 40.2483C69.7934 40.3709 70.0348 40.4322 70.3485 40.4322H75.2353C75.4284 40.4322 75.5973 40.3709 75.7421 40.2483C75.911 40.1011 75.9955 39.9295 75.9955 39.7333V39.6598C75.9713 37.8697 75.4646 36.3126 74.4751 34.9885C73.5098 33.6398 72.1825 32.61 70.4933 31.8988C68.804 31.1632 66.8976 30.7954 64.7739 30.7954C61.3954 30.7954 58.7167 31.6659 56.7378 33.4069C54.7589 35.1234 53.7092 37.5755 53.5885 40.7632C53.5644 41.4498 53.5523 42.5533 53.5523 44.0736C53.5523 45.5693 53.5644 46.6483 53.5885 47.3103C53.7092 50.5471 54.7348 53.0238 56.6654 54.7402Z" fill="#0083FC"/>
</g>
<defs>
<clipPath id="clip0_503_224">
<rect width="410" height="88" fill="white"/>
</clipPath>
</defs>
</svg>
